<svg width="500" height="500" viewBox="0 0 500 500" fill="none" xmlns="http://www.w3.org/2000/svg">
<rect width="500" height="500" fill="#F5F5F5"/>
<rect width="500" height="500" fill="white"/>
<mask id="mask0_0_1" style="mask-type:luminance" maskUnits="userSpaceOnUse" x="137" y="177" width="226" height="67">
<path d="M137.411 177.062H362.411V243.063H137.411V177.062Z" fill="white"/>
</mask>
<g mask="url(#mask0_0_1)">
<path d="M208.24 182.745L245.839 220.609H353.484L362.87 231.839L353.484 243.063H342.833L339.854 237.063H332.901L329.922 243.063H323.245L320.266 237.063H313.401L310.427 243.063H303.792L300.813 237.063H293.859L290.88 243.063H245.88L202.823 199.703L159.536 243.063H137.24L160.484 219.656V196.974H176.057V203.974C184.948 195.021 193.885 186.021 202.776 177.062L208.24 182.745ZM250.078 224.88L251.568 226.38H352.76V224.88H250.078Z" fill="#CEAF83"/>
</g>
<mask id="mask1_0_1" style="mask-type:luminance" maskUnits="userSpaceOnUse" x="192" y="222" width="22" height="22">
<path d="M192 222.667H213.333V243.063H192V222.667Z" fill="white"/>
</mask>
<g mask="url(#mask1_0_1)">
<path d="M193.161 223.609H201.333V232.063H193.161V223.609ZM204.042 223.609H212.208V232.063H204.042V223.609ZM212.208 234.563V243.021H204.042V234.563H212.208ZM201.333 243.063H193.161V234.609H201.333V243.063Z" fill="#CEAF83"/>
</g>
</svg>
