<svg width="500" height="500" viewBox="0 0 500 500" fill="none" xmlns="http://www.w3.org/2000/svg">
<rect width="500" height="500" fill="#F5F5F5"/>
<rect width="500" height="500" fill="white"/>
<mask id="mask0_0_1" style="mask-type:luminance" maskUnits="userSpaceOnUse" x="137" y="177" width="226" height="67">
<path d="M137.411 177.062H362.411V243.063H137.411V177.062Z" fill="white"/>
</mask>
<g mask="url(#mask0_0_1)">
<path d="M208.24 182.745L245.839 220.609H353.484L362.87 231.839L353.484 243.063H342.833L339.854 237.063H332.901L329.922 243.063H323.245L320.266 237.063H313.401L310.427 243.063H303.792L300.813 237.063H293.859L290.88 243.063H245.88L202.823 199.703L159.536 243.063H137.24L160.484 219.656V196.974H176.057V203.974C184.948 195.021 193.885 186.021 202.776 177.062L208.24 182.745ZM250.078 224.88L251.568 226.38H352.76V224.88H250.078Z" fill="#CEAF83"/>
</g>
<mask id="mask1_0_1" style="mask-type:luminance" maskUnits="userSpaceOnUse" x="192" y="222" width="22" height="22">
<path d="M192 222.667H213.333V243.063H192V222.667Z" fill="white"/>
</mask>
<g mask="url(#mask1_0_1)">
<path d="M193.161 223.609H201.333V232.063H193.161V223.609ZM204.042 223.609H212.208V232.063H204.042V223.609ZM212.208 234.563V243.021H204.042V234.563H212.208ZM201.333 243.063H193.161V234.609H201.333V243.063Z" fill="#CEAF83"/>
</g>
<path d="M188.046 279V259.4H190.118V279H188.046ZM196.495 279V259.4H198.203L211.727 276.424H210.831V259.4H212.875V279H211.167L197.671 261.976H198.567V279H196.495ZM240.936 259.4H242.98V279H240.936V259.4ZM228.672 279H226.6V259.4H228.672V279ZM241.132 269.956H228.448V268.136H241.132V269.956ZM257.946 279.168C256.471 279.168 255.099 278.925 253.83 278.44C252.579 277.936 251.487 277.236 250.554 276.34C249.639 275.425 248.92 274.371 248.398 273.176C247.894 271.963 247.642 270.637 247.642 269.2C247.642 267.763 247.894 266.447 248.398 265.252C248.92 264.039 249.639 262.984 250.554 262.088C251.487 261.173 252.579 260.473 253.83 259.988C255.08 259.484 256.452 259.232 257.946 259.232C259.42 259.232 260.783 259.484 262.034 259.988C263.284 260.473 264.367 261.164 265.282 262.06C266.215 262.956 266.934 264.011 267.438 265.224C267.96 266.437 268.222 267.763 268.222 269.2C268.222 270.637 267.96 271.963 267.438 273.176C266.934 274.389 266.215 275.444 265.282 276.34C264.367 277.236 263.284 277.936 262.034 278.44C260.783 278.925 259.42 279.168 257.946 279.168ZM257.946 277.32C259.122 277.32 260.204 277.124 261.194 276.732C262.202 276.321 263.07 275.752 263.798 275.024C264.544 274.277 265.123 273.419 265.534 272.448C265.944 271.459 266.15 270.376 266.15 269.2C266.15 268.024 265.944 266.951 265.534 265.98C265.123 264.991 264.544 264.132 263.798 263.404C263.07 262.657 262.202 262.088 261.194 261.696C260.204 261.285 259.122 261.08 257.946 261.08C256.77 261.08 255.678 261.285 254.67 261.696C253.662 262.088 252.784 262.657 252.038 263.404C251.31 264.132 250.731 264.991 250.302 265.98C249.891 266.951 249.686 268.024 249.686 269.2C249.686 270.357 249.891 271.431 250.302 272.42C250.731 273.409 251.31 274.277 252.038 275.024C252.784 275.752 253.662 276.321 254.67 276.732C255.678 277.124 256.77 277.32 257.946 277.32ZM272.866 279V259.4H274.574L283.534 274.688H282.638L291.514 259.4H293.222V279H291.234V262.508H291.71L283.534 276.508H282.554L274.322 262.508H274.854V279H272.866ZM301.456 268.164H311.816V269.928H301.456V268.164ZM301.68 277.208H313.468V279H299.608V259.4H313.048V261.192H301.68V277.208Z" fill="black"/>
</svg>
